<svg width="215" height="171" viewBox="0 0 215 171" fill="none" xmlns="http://www.w3.org/2000/svg">
<g opacity="0.5">
<path d="M115.424 64.1252C115.423 57.5905 113.283 51.2358 109.331 46.0317C105.379 40.8275 99.8319 37.0601 93.5374 35.3049C87.2429 33.5496 80.5468 33.9029 74.472 36.3109C68.3971 38.719 63.2775 43.0493 59.895 48.6404C56.5126 54.2316 55.0533 60.7762 55.7399 67.2747C56.4266 73.7732 59.2216 79.8683 63.6979 84.6291C68.1743 89.3898 74.0859 92.5544 80.5298 93.6396C86.9738 94.7247 93.5958 93.6708 99.3845 90.6387C97.3838 98.0601 94.5623 104.276 91.185 109.235C84.4305 119.17 75.5813 123.975 66.2618 123.975C64.5611 123.975 62.93 124.651 61.7274 125.853C60.5249 127.056 59.8493 128.687 59.8493 130.388C59.8493 132.088 60.5249 133.719 61.7274 134.922C62.93 136.125 64.5611 136.8 66.2618 136.8C80.5488 136.8 93.0831 129.25 101.796 116.451C110.431 103.746 115.424 85.8165 115.424 64.1252Z" fill="white"/>
<path d="M190.086 64.1252C190.085 57.5905 187.945 51.2358 183.993 46.0317C180.041 40.8275 174.494 37.0601 168.2 35.3049C161.905 33.5496 155.209 33.9029 149.134 36.3109C143.059 38.719 137.94 43.0493 134.557 48.6404C131.175 54.2316 129.715 60.7762 130.402 67.2747C131.089 73.7732 133.884 79.8683 138.36 84.6291C142.836 89.3898 148.748 92.5544 155.192 93.6396C161.636 94.7247 168.258 93.6708 174.047 90.6387C172.046 98.0601 169.224 104.276 165.847 109.235C159.093 119.17 150.243 123.975 140.924 123.975C139.223 123.975 137.592 124.651 136.39 125.853C135.187 127.056 134.511 128.687 134.511 130.388C134.511 132.088 135.187 133.719 136.39 134.922C137.592 136.125 139.223 136.8 140.924 136.8C155.211 136.8 167.745 129.25 176.458 116.451C185.093 103.746 190.086 85.8165 190.086 64.1252Z" fill="white"/>
</g>
</svg>
